HIERARCHY
ROOT Hips
{
  OFFSET 47.7473 84.1579 -1.72347
  CHANNELS 6 Xposition Yposition Zposition Zrotation Xrotation Yrotation
  JOINT spine
  {
    OFFSET 0 5.95438 0.342407
    CHANNELS 3 Zrotation Xrotation Yrotation
    JOINT spine1
    {
      OFFSET 0 8.85602 0
      CHANNELS 3 Zrotation Xrotation Yrotation
      JOINT spine2
      {
        OFFSET 0 8.48567 0
        CHANNELS 3 Zrotation Xrotation Yrotation
        JOINT Neck
        {
          OFFSET 0 21.7863 1.0387
          CHANNELS 3 Zrotation Xrotation Yrotation
          JOINT Head
          {
            OFFSET 0 6.5822 0
            CHANNELS 3 Zrotation Xrotation Yrotation
            End Site
            {
              OFFSET 0 15.9326 -5.25436
            }
          }
        }
        JOINT RightShoulder
        {
          OFFSET -3.57307 9.16386 -0.497525
          CHANNELS 3 Zrotation Xrotation Yrotation
          JOINT RightArm
          {
            OFFSET 0 12.0192 0
            CHANNELS 3 Zrotation Xrotation Yrotation
            JOINT RightArmRoll
            {
              OFFSET 0 6.06755 0
              CHANNELS 3 Zrotation Xrotation Yrotation
              JOINT RightForeArm
              {
                OFFSET 0 17.6726 0
                CHANNELS 3 Zrotation Xrotation Yrotation
                JOINT RightForeArmRoll
                {
                  OFFSET 0 6.80872 0
                  CHANNELS 3 Zrotation Xrotation Yrotation
                  JOINT RightHand
                  {
                    OFFSET 0 13.6636 0
                    CHANNELS 3 Zrotation Xrotation Yrotation
                    End Site
                    {
                      OFFSET 0 0 0
                    }
                  }
                }
              }
            }
          }
        }
        JOINT LeftShoulder
        {
          OFFSET 3.57307 9.16386 -0.497525
          CHANNELS 3 Zrotation Xrotation Yrotation
          JOINT LeftArm
          {
            OFFSET 0 12.0192 0
            CHANNELS 3 Zrotation Xrotation Yrotation
            JOINT LeftArmRoll
            {
              OFFSET 0 6.06755 0
              CHANNELS 3 Zrotation Xrotation Yrotation
              JOINT LeftForeArm
              {
                OFFSET 0 17.6726 0
                CHANNELS 3 Zrotation Xrotation Yrotation
                JOINT LeftForeArmRoll
                {
                  OFFSET 0 6.80872 0
                  CHANNELS 3 Zrotation Xrotation Yrotation
                  JOINT LeftHand
                  {
                    OFFSET 0 13.6636 0
                    CHANNELS 3 Zrotation Xrotation Yrotation
                    End Site
                    {
                      OFFSET 0 0 0
                    }
                  }
                }
              }
            }
          }
        }
      }
    }
  }
  JOINT RightUpLeg
  {
    OFFSET -5.27774 -0.967797 -0.811858
    CHANNELS 3 Zrotation Xrotation Yrotation
    JOINT RightUpLegRoll
    {
      OFFSET 0 16.0214 0
      CHANNELS 3 Zrotation Xrotation Yrotation
      JOINT RightLeg
      {
        OFFSET 0 -19.8401 0
        CHANNELS 3 Zrotation Xrotation Yrotation
        JOINT RightLegRoll
        {
          OFFSET 0 19.905 0
          CHANNELS 3 Zrotation Xrotation Yrotation
          JOINT RightFoot
          {
            OFFSET 0 16.5675 0
            CHANNELS 3 Zrotation Xrotation Yrotation
            JOINT RightToeBase
            {
              OFFSET 0 13.8496 0
              CHANNELS 3 Zrotation Xrotation Yrotation
              End Site
              {
                OFFSET 0.00587034 6.70728 -0.773117
              }
            }
          }
        }
      }
    }
  }
  JOINT LeftUpLeg
  {
    OFFSET 5.27774 -0.967797 -0.811858
    CHANNELS 3 Zrotation Xrotation Yrotation
    JOINT LeftUpLegRoll
    {
      OFFSET 0 16.0215 0
      CHANNELS 3 Zrotation Xrotation Yrotation
      JOINT LeftLeg
      {
        OFFSET 0 19.84 0
        CHANNELS 3 Zrotation Xrotation Yrotation
        JOINT LeftLegRoll
        {
          OFFSET 0 20.089 0
          CHANNELS 3 Zrotation Xrotation Yrotation
          JOINT LeftFoot
          {
            OFFSET 0 16.3835 0
            CHANNELS 3 Zrotation Xrotation Yrotation
            JOINT LeftToeBase
            {
              OFFSET 0 13.8496 0
              CHANNELS 3 Zrotation Xrotation Yrotation
              End Site
              {
                OFFSET -0.0263083 6.70727 -0.773117
              }
            }
          }
        }
      }
    }
  }
}
MOTION
Frames: 8
Frame Time: 0.00208333
52.2472 74.3863 3.3303 -3.10102 1.10492 1.40016 0.66681 1.80891 0.0718525 1.34004 7.62044 0.0199149 1.34327 9.26528 -0.00276393 -0.247311 -17.6293 -6.38848 7.83849 -11.0503 -4.99904 60.852 -6.40964 -4.03393 123.119 21.4737 -24.6086 3.93373e-006 2.52926e-006 -1.1011e-006 -3.63995 -0.0264286 -1.99268 1.01649e-005 1.86371e-006 -3.0116 8.03008 -4.95137 0.697616 -46.2441 -8.663 5.09452 -137.62 21.0019 38.4753 -6.4858e-006 1.0869e-006 -5.69466e-007 3.63917 -0.026689 1.99263 8.92515e-007 1.49191e-006 3.0116 -8.03009 -4.9514 -0.697622 -170.979 28.1169 -5.08633 180 7.01377e-015 178.341 -174.216 58.9969 174.379 -1.98412e-006 2.66226e-006 2.44621 -69.9825 83.119 71.7957 8.79944 34.2527 -3.81074 177.433 34.7059 5.09182 4.54188e-006 -4.6773e-006 -1.5617 10.4309 -63.0247 8.67258 -4.08024e-007 -1.90171e-007 -2.48177 40.8325 80.4224 -43.7323 -8.50765 34.8456 2.00769 
52.2984 74.4513 3.39977 -3.08196 0.96755 1.43824 0.656485 1.81427 0.0707726 1.31933 7.63115 0.0191689 1.32252 9.276 -0.00316092 -0.0807169 -17.7524 -6.39282 7.67679 -10.7784 -5.03387 60.855 -6.48946 -4.08223 123.268 21.6465 -24.7999 3.93373e-006 2.52926e-006 -1.1011e-006 -3.63995 -0.0264286 -1.99268 1.01649e-005 1.86371e-006 -3.0116 8.03008 -4.95137 0.697616 -46.015 -8.67701 5.10021 -137.886 20.9662 38.7445 -6.4858e-006 1.0869e-006 -5.69466e-007 3.63917 -0.026689 1.99263 8.92515e-007 1.49191e-006 3.0116 -8.03009 -4.9514 -0.697622 -171.028 27.8982 -5.03652 180 7.01376e-015 178.34 -174.225 58.8695 174.391 -1.98412e-006 2.66227e-006 2.43516 -68.4679 83.0467 70.27 8.81252 34.4178 -3.81616 177.468 34.4752 5.03495 4.54188e-006 -4.6773e-006 -1.55995 10.3042 -62.86 8.57385 -4.08024e-007 -1.90172e-007 -2.45907 40.2254 80.2954 -43.1049 -8.51774 34.9759 2.03488 
52.2716 74.4519 2.99853 -3.08045 0.894653 1.48858 0.650952 1.80072 0.0710672 1.30811 7.60407 0.0209877 1.31124 9.24892 -0.00114698 0.060069 -17.8444 -6.40577 7.52643 -10.511 -5.07683 60.8452 -6.61326 -4.15593 123.424 21.7873 -24.9833 3.93373e-006 2.52926e-006 -1.1011e-006 -3.63995 -0.0264286 -1.99268 1.01649e-005 1.86371e-006 -3.0116 8.03008 -4.95137 0.697616 -45.817 -8.69436 5.10969 -138.136 20.9181 38.9924 -6.4858e-006 1.0869e-006 -5.69466e-007 3.63917 -0.026689 1.99263 8.92515e-007 1.49191e-006 3.0116 -8.03009 -4.9514 -0.697622 -171.088 27.7377 -4.96666 180 7.01377e-015 178.341 -174.303 58.7069 174.447 -1.98412e-006 2.66227e-006 2.41796 -66.7971 82.9556 68.5699 8.82706 34.5947 -3.82505 177.53 34.2915 4.96902 4.54188e-006 -4.6773e-006 -1.55684 10.1649 -62.6518 8.46086 -4.08024e-007 -1.90172e-007 -2.43611 39.6909 80.1769 -42.5467 -8.52361 35.0569 2.04936 
52.32 74.5696 3.12039 -3.09421 0.874918 1.55393 0.648595 1.77008 0.0725102 1.30317 7.54282 0.0251215 1.30621 9.18767 0.00308182 0.211245 -17.899 -6.42408 7.35797 -10.2476 -5.12614 60.8442 -6.77894 -4.255 123.574 21.9104 -25.1498 3.93373e-006 2.52926e-006 -1.1011e-006 -3.63995 -0.0264286 -1.99268 1.01649e-005 1.86371e-006 -3.0116 8.03008 -4.95137 0.697616 -45.6226 -8.71197 5.11967 -138.389 20.8504 39.2372 -6.4858e-006 1.0869e-006 -5.69466e-007 3.63917 -0.026689 1.99263 8.92515e-007 1.49191e-006 3.0116 -8.03009 -4.9514 -0.697622 -171.166 27.62 -4.87305 180 7.01378e-015 178.343 -174.444 58.5073 174.544 -1.98412e-006 2.66228e-006 2.39468 -64.9489 82.8411 66.6758 8.84379 34.7947 -3.83654 177.618 34.1377 4.89322 4.54188e-006 -4.6773e-006 -1.55231 10.0096 -62.3943 8.33029 -4.08024e-007 -1.90172e-007 -2.41196 39.2172 80.0647 -42.0459 -8.52595 35.0977 2.05326 
52.4048 74.6944 3.1987 -3.12097 0.902239 1.63203 0.648934 1.72425 0.074966 1.30355 7.45119 0.0313067 1.30649 9.09604 0.00927721 0.369447 -17.9208 -6.44728 7.17573 -9.98647 -5.18115 60.8499 -6.98066 -4.37603 123.715 22.0155 -25.3001 3.93373e-006 2.52926e-006 -1.1011e-006 -3.63995 -0.0264286 -1.99268 1.01649e-005 1.86371e-006 -3.0116 8.03008 -4.95137 0.697616 -45.4332 -8.72991 5.13022 -138.642 20.7652 39.4768 -6.4858e-006 1.0869e-006 -5.69466e-007 3.63917 -0.026689 1.99263 8.92515e-007 1.49191e-006 3.0116 -8.03009 -4.9514 -0.697622 -171.259 27.538 -4.75857 180 7.01379e-015 178.347 -174.64 58.2706 174.675 -1.98412e-006 2.66228e-006 2.36583 -62.96 82.7021 64.6268 8.86233 35.0135 -3.85014 177.729 34.0082 4.8089 4.54188e-006 -4.6773e-006 -1.54647 9.83957 -62.0895 8.18384 -4.08024e-007 -1.90172e-007 -2.38644 38.7853 79.9559 -41.5835 -8.52512 35.1031 2.04782 
52.4418 74.8303 3.27501 -3.15851 0.970509 1.7206 0.651492 1.6651 0.0782987 1.30833 7.33294 0.0392797 1.31113 8.97779 0.0171904 0.531321 -17.9144 -6.47489 6.98402 -9.72594 -5.24121 60.8599 -7.2126 -4.5156 123.85 22.1025 -25.4348 3.93373e-006 2.52926e-006 -1.1011e-006 -3.63995 -0.0264286 -1.99268 1.01649e-005 1.86371e-006 -3.0116 8.03008 -4.95137 0.697616 -45.2502 -8.74823 5.14138 -138.894 20.6643 39.7094 -6.4858e-006 1.0869e-006 -5.69466e-007 3.63917 -0.026689 1.99263 8.92515e-007 1.49191e-006 3.0116 -8.03009 -4.9514 -0.697622 -171.366 27.4846 -4.62608 180 7.01381e-015 178.353 -174.882 57.9968 174.837 -1.98412e-006 2.66228e-006 2.3319 -60.8677 82.5373 62.4624 8.88234 35.247 -3.86536 177.859 33.8975 4.7174 4.54188e-006 -4.6773e-006 -1.53944 9.65606 -61.7389 8.02326 -4.08024e-007 -1.90171e-007 -2.35938 38.3779 79.8477 -41.1423 -8.52159 35.0781 2.03431 
52.2223 75.0427 3.45079 -3.2046 1.07362 1.81739 0.655791 1.59452 0.0823727 1.31655 7.19185 0.0487766 1.3192 8.8367 0.0265724 0.693521 -17.8843 -6.50643 6.78712 -9.46436 -5.30566 60.872 -7.46893 -4.67031 123.977 22.1711 -25.5545 3.93373e-006 2.52926e-006 -1.1011e-006 -3.63995 -0.0264286 -1.99268 1.01649e-005 1.86371e-006 -3.0116 8.03008 -4.95137 0.697616 -45.0748 -8.76702 5.15321 -139.141 20.5499 39.933 -6.4858e-006 1.0869e-006 -5.69466e-007 3.63917 -0.026689 1.99263 8.92515e-007 1.49191e-006 3.0116 -8.03009 -4.9514 -0.697622 -171.487 27.4528 -4.47844 180 7.01384e-015 178.36 -175.16 57.6859 175.022 -1.98412e-006 2.66228e-006 2.29339 -58.708 82.3461 60.2209 8.90342 35.4907 -3.88171 178.005 33.8 4.62008 4.54188e-006 -4.6773e-006 -1.53135 9.46046 -61.3444 7.85033 -4.08024e-007 -1.90171e-007 -2.33061 37.979 79.7368 -40.7062 -8.5158 35.0273 2.01402 
52.2912 75.201 3.54909 -3.25699 1.20546 1.92013 0.661354 1.51441 0.0870522 1.32729 7.03169 0.0595338 1.32977 8.67653 0.0371748 0.852697 -17.835 -6.54143 6.58935 -9.20006 -5.37384 60.8843 -7.74385 -4.83674 124.098 22.2211 -25.6599 3.93373e-006 2.52926e-006 -1.1011e-006 -3.63995 -0.0264286 -1.99268 1.01649e-005 1.86371e-006 -3.0116 8.03008 -4.95137 0.697616 -44.9085 -8.78634 5.16576 -139.382 20.4239 40.1459 -6.4858e-006 1.0869e-006 -5.69466e-007 3.63917 -0.026689 1.99263 8.92515e-007 1.49191e-006 3.0116 -8.03009 -4.9514 -0.697622 -171.621 27.4356 -4.31852 180 7.01386e-015 178.368 -175.466 57.338 175.226 -1.98412e-006 2.66228e-006 2.25082 -56.515 82.1279 57.9388 8.92519 35.7404 -3.89868 178.164 33.7104 4.51832 4.54188e-006 -4.6773e-006 -1.52231 9.25412 -60.9075 7.66681 -4.08024e-007 -1.9017e-007 -2.29995 37.5736 79.6201 -40.2604 -8.50823 34.9557 1.98827 
